<svg xmlns="http://www.w3.org/2000/svg" version="1.1" xlink="http://www.w3.org/1999/xlink" svgjs="http://svgjs.dev/svgjs" viewBox="0 0 800 800"><defs><linearGradient x1="50%" y1="0%" x2="50%" y2="100%" id="gggyrate-grad"><stop stop-color="#FFAC81" stop-opacity="1" offset="0%"></stop><stop stop-color="#FFF689" stop-opacity="1" offset="100%"></stop></linearGradient></defs><g stroke-width="3.5" stroke="url(#gggyrate-grad)" fill="none"><path d="M358.9696675626692 -191.7677073309713C384.3592183906121 -206.42373117670698 415.64072057423164 -206.42373117670698 441.03027140217466 -191.76360430077932L891.9697016210253 68.58597047062767C917.3592524489682 83.24199431636339 933.0000035407779 110.33430267397614 933.0000035407779 139.65045339563972V660.3496029384537C933.0000035407779 689.6657536601169 917.3592524489682 716.75806201773 891.9697016210253 731.4181888936578L441.03027140217466 991.7677636650646C415.64072057423164 1006.4237875108004 384.3592183906121 1006.4237875108004 358.9696675626692 991.7636606348726L-91.96976265618144 731.4140858634655C-117.35931348412441 716.75806201773 -133.00006457593418 689.6657536601169 -133.00006457593418 660.3496029384537V139.65045339563972C-133.00006457593418 110.33430267397614 -117.35931348412441 83.24199431636339 -91.96976265618144 68.58186744043587L358.9696675626692 -191.7677073309713Z " transform="rotate(65, 400, 400)" opacity="0.83"></path><path d="M360.54775609804426 -169.0074120689177C384.96078574029707 -183.09974268981742 415.0391532245467 -183.09974268981742 439.4521828667995 -169.00346684757926L873.0477888464636 81.33266274031212C897.4608184887165 95.42499336121182 912.5000022308411 121.47528985891631 912.5000022308411 149.66389632205437V650.3361554978369C912.5000022308411 678.524761960975 897.4608184887165 704.5750584586797 873.0477888464636 718.6713343009176L439.4521828667995 969.0074638888088C415.0391532245467 983.0997945097085 384.96078574029707 983.0997945097085 360.54775609804426 969.0035186674706L-73.04784988161975 718.6673890795794C-97.46087952387262 704.5750584586797 -112.50006326599743 678.524761960975 -112.50006326599743 650.3361554978369V149.66389632205437C-112.50006326599743 121.47528985891631 -97.46087952387262 95.42499336121182 -73.04784988161975 81.32871751897369L360.54775609804426 -169.0074120689177Z " transform="rotate(62.5, 400, 400)" opacity="0.32"></path><path d="M362.1258446334193 -146.24711680686414C385.562353089982 -159.77575420292786 414.4375858748617 -159.77575420292786 437.87409433142443 -146.2433293943792L854.125876071902 94.07935500999645C877.5623845284645 107.60799240606025 892.0000009209043 132.6162770438566 892.0000009209043 159.67733924846902V640.3227080572203C892.0000009209043 667.383770261833 877.5623845284645 692.3920548996293 854.125876071902 705.9244797081778L437.87409433142443 946.2471641125535C414.4375858748617 959.7758015086172 385.562353089982 959.7758015086172 362.1258446334193 946.2433767000687L-54.12593710705812 705.920692295693C-77.56244556362083 692.3920548996293 -92.00006195606068 667.383770261833 -92.00006195606068 640.3227080572203V159.67733924846902C-92.00006195606068 132.6162770438566 -77.56244556362083 107.60799240606025 -54.12593710705812 94.07556759751162L362.1258446334193 -146.24711680686414Z " transform="rotate(60, 400, 400)" opacity="0.22"></path><path d="M363.7039331687945 -123.48682154481054C386.163920439667 -136.45176571603827 413.83601852517677 -136.45176571603827 436.29600579604926 -123.48319194117914L835.2039632973401 106.82604727968078C857.6639505682128 119.79099145090856 871.4999996109677 143.75726422879677 871.4999996109677 169.69078217488368V630.3092606166038C871.4999996109677 656.2427785626905 857.6639505682128 680.2090513405788 835.2039632973401 693.1776251154379L436.29600579604926 923.4868643362979C413.83601852517677 936.4518085075256 386.163920439667 936.4518085075256 363.7039331687945 923.4832347326667L-35.20402433249643 693.1739955118064C-57.66401160336903 680.2090513405788 -71.50006064612387 656.2427785626905 -71.50006064612387 630.3092606166038V169.69078217488368C-71.50006064612387 143.75726422879677 -57.66401160336903 119.79099145090856 -35.20402433249643 106.82241767604955L363.7039331687945 -123.48682154481054Z " transform="rotate(57.5, 400, 400)" opacity="0.59"></path><path d="M365.28202170416955 -100.726541541546C386.76548778935205 -113.12779248793777 413.2344511754917 -113.12779248793777 434.7179172606742 -100.7230697467682L816.2820505227785 119.57272429057616C837.7655166079612 131.97397523696793 850.9999983010307 154.89823615494788 850.9999983010307 179.70420984250939V620.2957979171981C850.9999983010307 645.1017716047595 837.7655166079612 668.0260325227396 816.2820505227785 680.4307552639091L434.7179172606742 900.7265493012535C413.2344511754917 913.1278002476452 386.76548778935205 913.1278002476452 365.28202170416955 900.7230775064756L-16.282111557934797 680.4272834691312C-37.7655776431173 668.0260325227396 -51.00005933618712 645.1017716047595 -51.00005933618712 620.2957979171981V179.70420984250939C-51.00005933618712 154.89823615494788 -37.7655776431173 131.97397523696793 -16.282111557934797 119.56925249579842L365.28202170416955 -100.726541541546Z " transform="rotate(55, 400, 400)" opacity="0.35"></path><path d="M366.8601102395446 -77.96624627949245C387.367055139037 -89.8038040010482 412.63288382580674 -89.8038040010482 433.13982872529914 -77.96293229356814L797.3601377482169 132.3194165602606C817.8670826477091 144.1569742818163 830.4999969910941 166.03922333988817 830.4999969910941 189.71765276892415V610.2823504765815C830.4999969910941 633.9607799056175 817.8670826477091 655.8430289636892 797.3601377482169 667.6839006711692L433.13982872529914 877.9662495249981C412.63288382580674 889.8038072465536 387.367055139037 889.8038072465536 366.8601102395446 877.9629355390737L2.6398012166268927 667.6805866852451C-17.867143682865503 655.8430289636892 -30.500058026250315 633.9607799056175 -30.500058026250315 610.2823504765815V189.71765276892415C-30.500058026250315 166.03922333988817 -17.867143682865503 144.1569742818163 2.6398012166268927 132.31610257433636L366.8601102395446 -77.96624627949245Z " transform="rotate(52.5, 400, 400)" opacity="0.79"></path><path d="M368.4381987749198 -55.20595101743885C387.9686224887221 -66.47981551415862 412.0313164761217 -66.47981551415862 431.56174018992397 -55.202794840368085L778.4382249736552 145.06610882994494C797.9686486874575 156.33997332666473 809.9999956811573 177.1802105248284 809.9999956811573 199.7310956953388V600.268903035965C809.9999956811573 622.8197882064753 797.9686486874575 643.660025404639 778.4382249736552 654.9370460784295L431.56174018992397 855.2059497487426C412.0313164761217 866.4798142454624 387.9686224887221 866.4798142454624 368.4381987749198 855.2027935716719L21.561713991188526 654.9338899013588C2.03129027738629 643.660025404639 -10.000056716313566 622.8197882064753 -10.000056716313566 600.268903035965V199.7310956953388C-10.000056716313566 177.1802105248284 2.03129027738629 156.33997332666473 21.561713991188526 145.0629526528743L368.4381987749198 -55.20595101743885Z " transform="rotate(50, 400, 400)" opacity="0.92"></path><path d="M370.01628731029484 -32.445655755385246C388.57018983840703 -43.155827027269055 411.4297491264367 -43.155827027269055 429.9836516545489 -32.442657387168026L759.5163121990935 157.81280109962938C778.0702147272057 168.5229723715131 789.4999943712205 188.32119770976863 789.4999943712205 209.74453862175346V590.2554555953483C789.4999943712205 611.6787965073332 778.0702147272057 631.4770218455886 759.5163121990935 642.1901914856896L429.9836516545489 832.445649972487C411.4297491264367 843.1558212443706 388.57018983840703 843.1558212443706 370.01628731029484 832.4426516042699L40.483626765750216 642.1871931174725C21.929724237638084 631.4770218455886 10.499944593623184 611.6787965073332 10.499944593623184 590.2554555953483V209.74453862175346C10.499944593623184 188.32119770976863 21.929724237638084 168.5229723715131 40.483626765750216 157.80980273141222L370.01628731029484 -32.445655755385246Z " transform="rotate(47.5, 400, 400)" opacity="0.72"></path><path d="M371.59443688082615 -9.6853604933317C389.17181822324824 -19.831838540379465 410.828242811908 -19.831838540379465 428.4056241543301 -9.682519933968024L740.5944604596881 170.55949336931377C758.1718418021102 180.70597141636154 769.0000540964401 199.46218489470886 769.0000540964401 219.75798154816823V580.2420081547317C769.0000540964401 600.537804808191 758.1718418021102 619.2940182865384 740.5944604596881 629.4433368929498L428.4056241543301 809.6853501962314C410.828242811908 819.8318282432792 389.17181822324824 819.8318282432792 371.59443688082615 809.682509636868L59.405600575468156 629.4404963335861C41.82821923304607 619.2940182865384 31.00000693871624 600.537804808191 31.00000693871624 580.2420081547317V219.75798154816823C31.00000693871624 199.46218489470886 41.82821923304607 180.70597141636154 59.405600575468156 170.55665280995015L371.59443688082615 -9.6853604933317Z " transform="rotate(45, 400, 400)" opacity="0.42"></path><path d="M373.1725254162013 13.074934768721903C389.7733855729332 3.4921499465100965 410.22667546222306 3.4921499465100965 426.8275356189549 13.077617519232035L721.6725476851265 183.30618563899816C738.2734078418583 192.88897046120996 748.5000527865033 210.60317207964908 748.5000527865033 229.7714244745829V570.2285607141151C748.5000527865033 589.3968131090489 738.2734078418583 607.111014727488 721.6725476851265 616.6964823002099L426.8275356189549 786.9250504199758C410.22667546222306 796.5078352421879 389.7733855729332 796.5078352421879 373.1725254162013 786.922367669466L78.32751335002979 616.6937995496997C61.726653193297864 607.111014727488 51.50000824865299 589.3968131090489 51.50000824865299 570.2285607141151V229.7714244745829C51.50000824865299 210.60317207964908 61.726653193297864 192.88897046120996 78.32751335002979 183.30350288848808L373.1725254162013 13.074934768721903Z " transform="rotate(42.5, 400, 400)" opacity="0.90"></path><path d="M374.7506139515765 35.83523003077545C390.37495292261826 26.816138433399658 409.625108112538 26.816138433399658 425.24944708357975 35.837754972432094L702.7506349105648 196.05287790868255C718.3749738816066 205.0719695060584 728.0000514765665 221.74415926458926 728.0000514765665 239.7848674009976V560.2151132734986C728.0000514765665 578.2558214099068 718.3749738816066 594.9280111684377 702.7506349105648 603.9496277074701L425.24944708357975 764.1647506437205C409.625108112538 773.1838422410964 390.37495292261826 773.1838422410964 374.7506139515765 764.162225702064L97.24942612459148 603.9471027658136C81.62508715354966 594.9280111684377 72.0000095585898 578.2558214099068 72.0000095585898 560.2151132734986V239.7848674009976C72.0000095585898 221.74415926458926 81.62508715354966 205.0719695060584 97.24942612459148 196.05035296702601L374.7506139515765 35.83523003077545Z " transform="rotate(40, 400, 400)" opacity="0.61"></path><path d="M376.32870248695156 58.59552529282905C390.97652027230333 50.14012692028925 409.0235407628529 50.14012692028925 423.6713585482047 58.59789242563215L683.8287221360031 208.79957017836693C698.4765399213549 217.25496855090677 707.5000501666296 232.8851464495295 707.5000501666296 249.7983103274123V550.2016658328819C707.5000501666296 567.1148297107646 698.4765399213549 582.7450076093874 683.8287221360031 591.2027731147302L423.6713585482047 741.404450867465C409.0235407628529 749.8598492400048 390.97652027230333 749.8598492400048 376.32870248695156 741.402083734662L116.17133889915311 591.2004059819272C101.52352111380145 582.7450076093874 92.50001086852654 567.1148297107646 92.50001086852654 550.2016658328819V249.7983103274123C92.50001086852654 232.8851464495295 101.52352111380145 217.25496855090677 116.17133889915311 208.79720304556395L376.32870248695156 58.59552529282905Z " transform="rotate(37.5, 400, 400)" opacity="0.32"></path><path d="M377.9067910223266 81.35585107246078C391.5780876219883 73.46414592475693 408.42197341316796 73.46414592475693 422.09327001282963 81.35806039641028L664.9068093614414 221.54629296562945C678.578105961103 229.43799811333326 687.000048856693 244.02616415204784 687.000048856693 259.8117837714051V540.1882489098434C687.000048856693 555.9738685292007 678.578105961103 570.5620345679152 664.9068093614414 578.4559490395686L422.09327001282963 718.6441816087878C408.42197341316796 726.5358867564915 391.5780876219883 726.5358867564915 377.9067910223266 718.6419722848382L135.0932516737148 578.4537397156191C121.42195507405319 570.5620345679152 113.0000121784633 555.9738685292007 113.0000121784633 540.1882489098434V259.8117837714051C113.0000121784633 244.02616415204784 121.42195507405319 229.43799811333326 135.0932516737148 221.54408364168L377.9067910223266 81.35585107246078Z " transform="rotate(35, 400, 400)" opacity="0.74"></path><path d="M379.4848795577018 104.11614633451433C392.17965497167324 96.7881344116465 407.820406063483 96.7881344116465 420.51518147745446 104.11819784961034L645.9848965868798 234.29298523531384C658.6796720008513 241.6209971581817 666.5000475467562 255.16715133698807 666.5000475467562 269.82522669781986V530.1748014692268C666.5000475467562 544.8328768300585 658.6796720008513 558.379031008865 645.9848965868798 565.7090944468289L420.51518147745446 695.8838818325323C407.820406063483 703.2118937554002 392.17965497167324 703.2118937554002 379.4848795577018 695.8818303174363L154.01516444827644 565.7070429317328C141.32038903430498 558.379031008865 133.5000134884001 544.8328768300585 133.5000134884001 530.1748014692268V269.82522669781986C133.5000134884001 255.16715133698807 141.32038903430498 241.6209971581817 154.01516444827644 234.29093372021794L379.4848795577018 104.11614633451433Z " transform="rotate(32.5, 400, 400)" opacity="0.81"></path><path d="M381.0629528342878 126.87644159656793C392.78120706256914 120.11212289853609 407.218823455009 120.11212289853609 418.93707768329034 126.8783353028104L627.0629685535291 247.03967750499822C638.7812227818104 253.80399620303012 646.0000309780303 266.3081385219283 646.0000309780303 279.8386696242345V520.1613540286102C646.0000309780303 533.6918851309165 638.7812227818104 546.1960274498147 627.0629685535291 552.9622398540889L418.93707768329034 673.1235820562767C407.218823455009 679.8879007543086 392.78120706256914 679.8879007543086 381.0629528342878 673.1216883500343L172.93706196404906 552.9603461478465C161.2188077357677 546.1960274498147 153.9999995395478 533.6918851309165 153.9999995395478 520.1613540286102V279.8386696242345C153.9999995395478 266.3081385219283 161.2188077357677 253.80399620303012 172.93706196404906 247.0377837987558L381.0629528342878 126.87644159656793Z " transform="rotate(30, 400, 400)" opacity="0.80"></path><path d="M382.64102611087384 149.6367063410434C393.3827591534651 143.43608086784752 406.6172408465349 143.43608086784752 417.3589738891262 149.63844223843233L608.1410405201783 259.7863392571045C618.8827735627697 265.9869647303004 625.5000144093044 277.44909518929035 625.5000144093044 289.8520820330711V510.14787607041546C625.5000144093044 522.5508629141962 618.8827735627697 534.0129933731862 608.1410405201783 540.215354743771L417.3589738891262 650.3632517624432C406.6172408465349 656.563877235639 393.3827591534651 656.563877235639 382.64102611087384 650.3615158650542L191.8589594798217 540.213618846382C181.11722643723044 534.0129933731862 174.49998559069553 522.5508629141962 174.49998559069553 510.14787607041546V289.8520820330711C174.49998559069553 277.44909518929035 181.11722643723044 265.9869647303004 191.8589594798217 259.7846033597156L382.64102611087384 149.6367063410434Z " transform="rotate(27.5, 400, 400)" opacity="0.88"></path><path d="M384.21911464624895 172.39703212067508C393.9843265031501 166.7600998723152 406.0156734968499 166.7600998723152 415.78088535375105 172.39861020921046L589.2191277456167 272.533062044367C598.9843396025178 278.16999429272687 605.0000130993677 288.59011289180876 605.0000130993677 299.86555547706394V500.134459147377C605.0000130993677 511.4099017326322 598.9843396025178 521.830020331714 589.2191277456167 527.4685306686092L415.78088535375105 627.6029825037658C406.0156734968499 633.2399147521257 393.9843265031501 633.2399147521257 384.21911464624895 627.6014044152305L210.78087225438333 527.4669525800739C201.01566039748218 521.830020331714 194.99998690063228 511.4099017326322 194.99998690063228 500.134459147377V299.86555547706394C194.99998690063228 288.59011289180876 201.01566039748218 278.16999429272687 210.78087225438333 272.5314839558317L384.21911464624895 172.39703212067508Z " transform="rotate(25, 400, 400)" opacity="0.28"></path><path d="M385.797203181624 195.15732738272868C394.58589385283506 190.0840883592048 405.41410614716494 190.0840883592048 414.202796818376 195.15874766241052L570.2972149710549 285.2797543140514C579.085905642266 290.3529933375753 584.500011789431 299.73110007674893 584.500011789431 309.87899840347865V490.1210117067603C584.500011789431 500.2689100334901 579.085905642266 509.64701677266373 570.2972149710549 514.7216760758695L414.202796818376 604.8426827275102C405.41410614716494 609.9159217510341 394.58589385283506 609.9159217510341 385.797203181624 604.8412624478285L229.70278502894502 514.7202557961875C220.91409435773397 509.64701677266373 215.49998821056903 500.2689100334901 215.49998821056903 490.1210117067603V309.87899840347865C215.49998821056903 299.73110007674893 220.91409435773397 290.3529933375753 229.70278502894502 285.2783340343696L385.797203181624 195.15732738272868Z " transform="rotate(22.5, 400, 400)" opacity="0.48"></path><path d="M387.3752917169992 217.91760738599322C395.18746120252007 213.4080615873053 404.81253879747993 213.4080615873053 412.6247082830008 217.91886985682152L551.3753021964933 298.02643132494677C559.1874716820142 302.53597712363467 564.0000104794942 310.8720720029001 564.0000104794942 319.8924260711043V480.1075490073547C564.0000104794942 489.12790307555883 559.1874716820142 497.4639979548243 551.3753021964933 501.97480622434045L412.6247082830008 582.0823676924657C404.81253879747993 586.5919134911537 395.18746120252007 586.5919134911537 387.3752917169992 582.0811052216375L248.62469780350665 501.97354375351233C240.81252831798577 497.4639979548243 235.99998952050584 489.12790307555883 235.99998952050584 480.1075490073547V319.8924260711043C235.99998952050584 310.8720720029001 240.81252831798577 302.53597712363467 248.62469780350665 298.0251688541185L387.3752917169992 217.91760738599322Z " transform="rotate(20, 400, 400)" opacity="0.28"></path><path d="M388.95338025237425 240.67790264804677C395.7890285522051 236.73205007419486 404.2109714477949 236.73205007419486 411.04661974762575 240.67900731002157L532.4533894219317 310.7731235946311C539.2890377217625 314.71897616848304 543.5000091695574 322.0130591878403 543.5000091695574 329.90586899751895V470.0941015667381C543.5000091695574 477.98691137641674 539.2890377217625 485.28099439577403 532.4533894219317 489.2279516316007L411.04661974762575 559.3220679162102C404.2109714477949 563.2679204900621 395.7890285522051 563.2679204900621 388.95338025237425 559.3209632542355L267.54661057806834 489.22684696962597C260.71096227823756 485.28099439577403 256.4999908304426 477.98691137641674 256.4999908304426 470.0941015667381V329.90586899751895C256.4999908304426 322.0130591878403 260.71096227823756 314.71897616848304 267.54661057806834 310.7720189326564L388.95338025237425 240.67790264804677Z " transform="rotate(17.5, 400, 400)" opacity="0.31"></path><path d="M390.53146878774936 263.43819791010037C396.39059590189004 260.05603856108445 403.60940409810996 260.05603856108445 409.46853121225064 263.43914476322163L513.53147664737 323.51981586431555C519.3906037615106 326.90197521333147 523.0000078596206 333.15404637278056 523.0000078596206 339.91931192393366V460.0806541261215C523.0000078596206 466.84591967727465 519.3906037615106 473.09799083672374 513.53147664737 476.48109703886087L409.46853121225064 536.5617681399548C403.60940409810996 539.9439274889708 396.39059590189004 539.9439274889708 390.53146878774936 536.5608212868335L286.46852335263003 476.48015018573966C280.6093962384893 473.09799083672374 276.9999921403794 466.84591967727465 276.9999921403794 460.0806541261215V339.91931192393366C276.9999921403794 333.15404637278056 280.6093962384893 326.90197521333147 286.46852335263003 323.5188690111943L390.53146878774936 263.43819791010037Z " transform="rotate(15, 400, 400)" opacity="0.88"></path><path d="M392.1095573231245 286.198508430943C396.99216325157505 283.3800423067631 403.00783674842495 283.3800423067631 407.8904426768755 286.1992974752107L494.60956387280834 336.266523392789C499.4921698012589 339.0849895169689 502.50000654968386 344.29504881650985 502.50000654968386 349.93277010913744V450.067221944294C502.50000654968386 455.70494323692157 499.4921698012589 460.91500253646245 494.60956387280834 463.7342577049101L407.8904426768755 513.8014836224884C403.00783674842495 516.6199497466683 396.99216325157505 516.6199497466683 392.1095573231245 513.8006945782207L305.39043612719166 463.7334686606424C300.5078301987411 460.91500253646245 297.49999345031614 455.70494323692157 297.49999345031614 450.067221944294V349.93277010913744C297.49999345031614 344.29504881650985 300.5078301987411 339.0849895169689 305.39043612719166 336.26573434852133L392.1095573231245 286.198508430943Z " transform="rotate(12.5, 400, 400)" opacity="0.16"></path><path d="M393.6876458584996 308.9588189517857C397.59373060126006 306.70404605244175 402.40626939873994 306.70404605244175 406.3123541415004 308.9594501871998L475.68765109824665 349.01323092126245C479.5937358410071 351.2680038206064 482.0000052397471 355.43605126023914 482.0000052397471 359.9462282943412V440.0537897624664C482.0000052397471 444.5639667965685 479.5937358410071 448.7320142362012 475.68765109824665 450.9874183709593L406.3123541415004 491.0411991050219C402.40626939873994 493.2959720043659 397.59373060126006 493.2959720043659 393.6876458584996 491.0405678696078L324.31234890175335 450.9867871355452C320.4062641589929 448.7320142362012 317.9999947602529 444.5639667965685 317.9999947602529 440.0537897624664V359.9462282943412C317.9999947602529 355.43605126023914 320.4062641589929 351.2680038206064 324.31234890175335 349.0125996858483L393.6876458584996 308.9588189517857Z " transform="rotate(10, 400, 400)" opacity="0.18"></path><path d="M395.2657343938747 331.7191065844447C398.195297950945 330.0280269099368 401.804702049055 330.0280269099368 404.7342656061253 331.7195800110053L456.765738323685 361.7599155615523C459.6953018807553 363.45099523606024 461.5000039298103 366.5770308157848 461.5000039298103 369.9596635913614V430.0403346924553C461.5000039298103 433.42296746803186 459.6953018807553 436.5490030477564 456.765738323685 438.24055614882496L404.7342656061253 468.2808916993719C401.804702049055 469.9719713738799 398.195297950945 469.9719713738799 395.2657343938747 468.2804182728113L343.234261676315 438.24008272226433C340.3046981192447 436.5490030477564 338.4999960701897 433.42296746803186 338.4999960701897 430.0403346924553V369.9596635913614C338.4999960701897 366.5770308157848 340.3046981192447 363.45099523606024 343.234261676315 361.7594421349917L395.2657343938747 331.7191065844447Z " transform="rotate(7.5, 400, 400)" opacity="0.24"></path><path d="M396.84382292924977 354.47940184649826C398.79686530063003 353.35201539682635 401.20313469936997 353.35201539682635 403.15617707075023 354.47971746420535L437.8438255491233 374.5066078312367C439.7968679205036 375.63399428090867 441.00000261987356 377.718018000725 441.00000261987356 379.97310651777605V420.0268872518387C441.00000261987356 422.2819757688897 439.7968679205036 424.36599948870605 437.8438255491233 425.4937015560851L403.15617707075023 445.5205919231164C401.20313469936997 446.64797837278843 398.79686530063003 446.64797837278843 396.84382292924977 445.52027630540937L362.1561744508767 425.4933859383781C360.2031320794964 424.36599948870605 358.99999738012644 422.2819757688897 358.99999738012644 420.0268872518387V379.97310651777605C358.99999738012644 377.718018000725 360.2031320794964 375.63399428090867 362.1561744508767 374.5062922135296L396.84382292924977 354.47940184649826Z " transform="rotate(5, 400, 400)" opacity="0.73"></path><path d="M398.4219114646249 377.2396971085519C399.398432650315 376.6760038837159 400.601567349685 376.6760038837159 401.5780885353751 377.2398549174054L418.9219127745617 387.2533001009211C419.8984339602518 387.81699332575704 420.50000130993675 388.85900518566524 420.50000130993675 389.98654944419076V410.0134398112221C420.50000130993675 411.1409840697476 419.8984339602518 412.18299592965576 418.9219127745617 412.7468469633453L401.5780885353751 422.76029214686093C400.601567349685 423.32398537169695 399.398432650315 423.32398537169695 398.4219114646249 422.76013433800745L381.0780872254383 412.7466891544918C380.1015660397482 412.18299592965576 379.49999869006325 411.1409840697476 379.49999869006325 410.0134398112221V389.98654944419076C379.49999869006325 388.85900518566524 380.1015660397482 387.81699332575704 381.0780872254383 387.25314229206754L398.4219114646249 377.2396971085519Z " transform="rotate(2.5, 400, 400)" opacity="0.16"></path></g></svg>